<svg xmlns="http://www.w3.org/2000/svg" viewBox="0 0 256 256"><path d="M50.626 101.581c-2.56.246-.226 9.81 8.867 15.647 9.093 5.836 26.153 11.919 43.663 7.7a54.689 54.689 0 0 0 24.986-14.214 54.585 54.585 0 0 0 24.986 14.214 53.259 53.259 0 0 0 41.249-6.144c9.114-5.837 13.844-16.856 11.284-17.102-2.56-.246-.226 3.052-9.81 7.25s-21.237-9.687-22.18-11.08c-.941-1.392-14.95-19.619-29.654-19.619-11.08 0-14.746 6.369-15.871 9.503-1.126-3.133-4.793-9.503-15.871-9.503-14.726 0-28.671 18.227-29.656 19.62-.984 1.392-12.617 15.174-22.201 10.977-9.584-4.198-7.229-7.476-9.789-7.25z"/></svg>